<svg xmlns="http://www.w3.org/2000/svg" viewBox="0 0 168.03 197.95"><defs><style>.cls-1{fill:#2f1a45;}.cls-2{fill:#fdc522;}.cls-3{fill:#fff;}</style></defs><g id="Layer_2" data-name="Layer 2"><g id="Layer_1-2" data-name="Layer 1"><rect class="cls-1" width="168.03" height="197.95"/><path class="cls-2" d="M121.75,149.3v6.52c0,4.4-.43,10.35-5.6,10.35-4,0-5.42-2.4-5.42-6.42l.09-35.57c0-4.69,1.11-7.57,5.85-7.47,2.84,0,4.83,3.16,4.83,9.3v4.6h15.15v-6c0-12.53-5.65-18.83-15.36-20.4,5.24-.68,9.66-2.75,12.4-7.87,2.49-4.79,2.21-10.35,2.21-15.43v-50H119l-.1,58.08c.1,2-.77,2.49-3.26,2.59-2.3.1-3.45-1-3.45-3.64V78.76H99.11c-.65-6.13-2.78-9.93-6-12.94-3.94-3.64-9.4-6.13-15.73-10.16-3.35-2.3-5.56-4.5-5.08-8.82.38-3.16,2.4-5.08,5.85-4.79,5.56.38,5.37,6.13,5.56,10.35H99.22c.77-13.51-6.71-23.29-21.38-23.29-13,0-21.19,6.9-21.19,20.42,0,6.32,1.83,10.73,4.9,14.38s7.57,6.42,12.75,9.39c4.41,2.68,9.39,5,9.39,11C83.69,88,82,91.51,78,91.51c-5.38,0-6.72-3.64-6.72-7.76V78.67H55.7v7.67c0,8.22,4.9,15.79,16.26,17.67-11.07,1.36-16.26,8.66-16.26,22.67V156.2c0,14.67,5.42,22.91,19.38,22.91,12.77,0,19.35-5.86,21.26-14.84,1.85,9.58,7.55,14.84,18.7,14.84,15.5,0,21.87-8.63,21.87-21V149.3Zm-39.95,0v6.52c0,4.4-.44,10.35-5.6,10.35-4,0-5.43-2.4-5.43-6.42l.09-35.57c0-4.69,1.11-7.57,5.85-7.47,2.85,0,4.83,3.16,4.83,9.3v4.6H95.65V149.3Zm14.48-30.19c-1.45-8.82-6.63-13.5-14.63-14.89,9.6-1.15,15.51-6.56,17.18-15.59a22.59,22.59,0,0,0,.63,3.94C101.09,99,105.93,102.78,112,104c-8.88,1.08-14,6-15.67,15.11"/><path class="cls-2" d="M31.84,174.74A3.33,3.33,0,0,1,33,172a4.66,4.66,0,0,1,3-.88h.45v1.73h-.54a2.87,2.87,0,0,0-1.73.44,2,2,0,0,0,0,2.85,2.83,2.83,0,0,0,1.71.44,2.93,2.93,0,0,0,1.58-.41,5.71,5.71,0,0,0,1.25-1,16.2,16.2,0,0,0,1.12-1.32A10.14,10.14,0,0,1,41,172.5a5.91,5.91,0,0,1,1.48-1,4.48,4.48,0,0,1,2-.41,4.6,4.6,0,0,1,3,.9,3.38,3.38,0,0,1,1.1,2.79,3.33,3.33,0,0,1-1.1,2.78,4.6,4.6,0,0,1-3,.89H43.5v-1.7h1a2.8,2.8,0,0,0,1.73-.47,2,2,0,0,0,0-2.9,2.8,2.8,0,0,0-1.73-.46,3,3,0,0,0-1.58.4,6.93,6.93,0,0,0-1.24,1c-.38.41-.75.84-1.12,1.31a10.59,10.59,0,0,1-1.2,1.31,6.35,6.35,0,0,1-1.48,1,4.35,4.35,0,0,1-2,.41,4.58,4.58,0,0,1-3-.89A3.3,3.3,0,0,1,31.84,174.74Z"/><path class="cls-2" d="M45.07,167.64l3.29.63V170L32,166.82v-2.64l16.35-3.13v1.82l-3.29.63Zm-1.57-.24v-3.64l-9.44,1.85Z"/><path class="cls-2" d="M48.36,158v1.64H32v-2.31l11.82-3.79H32v-1.61H48.36v1.89L35.14,158Z"/><path class="cls-2" d="M46.7,150.54a3.71,3.71,0,0,0,0-.47v-.44a2.17,2.17,0,0,0-.55-1.41,2.41,2.41,0,0,0-1.74-.51H32v-1.8H44.32a5.92,5.92,0,0,1,1.92.27,3.27,3.27,0,0,1,1.25.74,2.63,2.63,0,0,1,.67,1.11,5,5,0,0,1,.22,1.36c0,.22,0,.42,0,.59a3.87,3.87,0,0,1,0,.56Z"/><path class="cls-2" d="M36,144.25a4.59,4.59,0,0,1-3-.92,4.14,4.14,0,0,1,0-5.64,4.48,4.48,0,0,1,3-.94h8.45a4.46,4.46,0,0,1,3,.94,4.11,4.11,0,0,1,0,5.64,4.57,4.57,0,0,1-3,.92Zm8.55-1.8a2.88,2.88,0,0,0,1.74-.47,2.05,2.05,0,0,0,0-2.94,2.88,2.88,0,0,0-1.74-.46H35.86a2.84,2.84,0,0,0-1.74.46,2.05,2.05,0,0,0,0,2.94,2.84,2.84,0,0,0,1.74.47Z"/><path class="cls-2" d="M31.84,131.59A3.32,3.32,0,0,1,33,128.83a4.66,4.66,0,0,1,3-.88h.45v1.72h-.54a2.87,2.87,0,0,0-1.73.45,1.65,1.65,0,0,0-.61,1.42,1.67,1.67,0,0,0,.61,1.43,2.9,2.9,0,0,0,1.71.44A2.93,2.93,0,0,0,37.4,133a5.71,5.71,0,0,0,1.25-1,16.2,16.2,0,0,0,1.12-1.32A10.14,10.14,0,0,1,41,129.35a5.91,5.91,0,0,1,1.48-1,4.48,4.48,0,0,1,2-.41,4.6,4.6,0,0,1,3,.9,3.38,3.38,0,0,1,1.1,2.79,3.33,3.33,0,0,1-1.1,2.78,4.6,4.6,0,0,1-3,.89H43.5v-1.7h1a2.8,2.8,0,0,0,1.73-.47,2,2,0,0,0,0-2.9,2.8,2.8,0,0,0-1.73-.47,3,3,0,0,0-1.58.41,6.52,6.52,0,0,0-1.24,1c-.38.4-.75.84-1.12,1.31a11.36,11.36,0,0,1-1.2,1.31,6.35,6.35,0,0,1-1.48,1,4.48,4.48,0,0,1-2,.41,4.58,4.58,0,0,1-3-.89A3.3,3.3,0,0,1,31.84,131.59Z"/><path class="cls-2" d="M39.25,120.52h1.64v4H46.7V119.6h1.66v6.73H32V119.6h1.66v4.91h5.58Z"/><path class="cls-3" d="M31.84,114.39A3.38,3.38,0,0,1,33,111.6a4.66,4.66,0,0,1,3-.9h1.47v1.73H35.86a2.84,2.84,0,0,0-1.74.46,1.69,1.69,0,0,0-.62,1.46,1.72,1.72,0,0,0,.62,1.45,2.84,2.84,0,0,0,1.74.46h8.65a2.88,2.88,0,0,0,1.74-.46,1.72,1.72,0,0,0,.62-1.45,1.69,1.69,0,0,0-.62-1.46,2.88,2.88,0,0,0-1.74-.46H42.38V110.7h2a4.62,4.62,0,0,1,3,.9,4,4,0,0,1,0,5.56,4.62,4.62,0,0,1-3,.9H36a6,6,0,0,1-1.7-.22,3.51,3.51,0,0,1-1.3-.68,3,3,0,0,1-.82-1.14A4.05,4.05,0,0,1,31.84,114.39Z"/><path class="cls-3" d="M32,107.22H48.36v1.83H32Z"/><path class="cls-3" d="M48.36,103H33.67v3H32V98.13h1.66v3H48.36Z"/><path class="cls-3" d="M42.5,94,32,97.43V95.54L40,93l-8-2.57V88.7L42.5,92.18h5.86V94Z"/><path class="cls-3" d="M31.84,83.86A3.38,3.38,0,0,1,33,81.07a4.66,4.66,0,0,1,3-.9h1.47V81.9H35.86a2.91,2.91,0,0,0-1.74.45,2,2,0,0,0,0,2.91,2.84,2.84,0,0,0,1.74.47h8.65a2.88,2.88,0,0,0,1.74-.47,2,2,0,0,0,0-2.91,3,3,0,0,0-1.74-.45H42.38V80.17h2a4.62,4.62,0,0,1,3,.9,4,4,0,0,1,0,5.56,4.62,4.62,0,0,1-3,.9H36a6.37,6.37,0,0,1-1.7-.22,3.66,3.66,0,0,1-1.3-.68,3.1,3.1,0,0,1-.82-1.15A4,4,0,0,1,31.84,83.86Z"/><path class="cls-3" d="M36,78.65a4.59,4.59,0,0,1-3-.92,4.14,4.14,0,0,1,0-5.64,4.48,4.48,0,0,1,3-.94h8.45a4.46,4.46,0,0,1,3,.94,4.11,4.11,0,0,1,0,5.64,4.57,4.57,0,0,1-3,.92Zm8.55-1.8a2.81,2.81,0,0,0,1.74-.48,2,2,0,0,0,0-2.93A2.88,2.88,0,0,0,44.51,73H35.86a2.84,2.84,0,0,0-1.74.47,2,2,0,0,0,0,2.93,2.77,2.77,0,0,0,1.74.48Z"/><path class="cls-3" d="M48.36,69.42H32V67.6H46.7V62.93h1.66Z"/><path class="cls-3" d="M48.36,61.55H32V59.73H46.7V55.05h1.66Z"/><path class="cls-3" d="M39.25,47.86h1.64v4H46.7V47h1.66v6.73H32V47h1.66v4.9h5.58Z"/><path class="cls-3" d="M31.84,41.74A3.42,3.42,0,0,1,33,38.94a4.72,4.72,0,0,1,3-.89h1.4v1.72h-1.5a2.91,2.91,0,0,0-1.74.46,1.69,1.69,0,0,0-.62,1.46,1.71,1.71,0,0,0,.62,1.45,2.84,2.84,0,0,0,1.74.47h8.65a2.88,2.88,0,0,0,1.74-.47,1.71,1.71,0,0,0,.62-1.45,1.69,1.69,0,0,0-.62-1.46,3,3,0,0,0-1.74-.46H41.24v1.69H39.6V38.05h4.81a4.67,4.67,0,0,1,3,.89,3.39,3.39,0,0,1,1.12,2.8,3.34,3.34,0,0,1-1.12,2.77,4.62,4.62,0,0,1-3,.9H36a6,6,0,0,1-1.7-.23,3.49,3.49,0,0,1-1.3-.67,3.1,3.1,0,0,1-.82-1.15A4,4,0,0,1,31.84,41.74Z"/><path class="cls-3" d="M39.25,30.5h1.64v4H46.7V29.59h1.66v6.73H32V29.59h1.66V34.5h5.58Z"/></g></g></svg>